<svg id="Capa_1" enable-background="new 0 0 505 505" height="512" viewBox="0 0 505 505" width="512" xmlns="http://www.w3.org/2000/svg"><g><path d="m456.667 377.908c-17.156 0-32.254 8.985-40.833 22.497-8.579-13.511-23.677-22.497-40.833-22.497s-32.254 8.985-40.833 22.497c-8.58-13.512-23.678-22.497-40.834-22.497-15.693 0-29.647 7.532-38.482 19.155l-75.934-194.344 146.557-57.265c3.858-1.508 5.764-5.857 4.256-9.715-14.28-36.549-45.373-63.523-87.55-75.953-3.973-1.173-8.143 1.1-9.314 5.074-1.171 3.973 1.101 8.143 5.074 9.314 34.888 10.282 61.186 31.491 74.838 60.137l-72.497 28.327c-13.333-31.425-32.087-58.372-53.297-76.423-8.16-6.944-16.381-12.314-24.486-16.07 18.471-3.034 37.001-3.252 54.893-.523 4.095.621 7.92-2.19 8.545-6.284.624-4.095-2.189-7.92-6.284-8.545-30.936-4.715-63.551-1.396-94.791 9.571l-7.753-19.84c-1.508-3.858-5.858-5.764-9.715-4.255-3.858 1.507-5.763 5.857-4.255 9.715l7.751 19.835c-39.451 17.02-71.653 44.967-91.179 79.314-20.951 36.854-24.87 76.649-11.036 112.054 1.157 2.962 3.989 4.773 6.988 4.772.908 0 1.831-.166 2.728-.516l146.556-57.265 68.317 174.846c-6.505-3.264-13.835-5.117-21.594-5.117-17.156 0-32.253 8.985-40.833 22.497-8.58-13.511-23.677-22.497-40.833-22.497s-32.253 8.985-40.833 22.497c-8.58-13.511-23.677-22.497-40.833-22.497-26.651 0-48.333 21.682-48.333 48.333 0 4.142 3.358 7.5 7.5 7.5s7.5-3.358 7.5-7.5c0-18.38 14.953-33.333 33.333-33.333s33.333 14.953 33.333 33.333c0 4.142 3.358 7.5 7.5 7.5s7.5-3.358 7.5-7.5c0-18.38 14.953-33.333 33.333-33.333s33.333 14.953 33.333 33.333c0 4.142 3.358 7.5 7.5 7.5s7.5-3.358 7.5-7.5c0-18.38 14.953-33.333 33.333-33.333s33.333 14.953 33.333 33.333c0 4.142 3.358 7.5 7.5 7.5s7.5-3.358 7.5-7.5c0-18.38 14.953-33.333 33.333-33.333 18.381 0 33.334 14.953 33.334 33.333 0 4.142 3.357 7.5 7.5 7.5s7.5-3.358 7.5-7.5c0-18.38 14.953-33.333 33.333-33.333s33.333 14.953 33.333 33.333c0 4.142 3.357 7.5 7.5 7.5s7.5-3.358 7.5-7.5c0-18.38 14.953-33.333 33.333-33.333s33.331 14.954 33.331 33.334c0 4.142 3.357 7.5 7.5 7.5s7.5-3.358 7.5-7.5c0-26.651-21.681-48.333-48.333-48.333zm-321.156-299.216c12.681 0 27.09 6.468 41.752 18.946 19.38 16.494 36.63 41.324 49.044 70.459l-119.667 46.759c-10.626-29.834-14.781-59.78-11.717-85.044 3.103-25.586 13.174-42.945 28.357-48.877 3.842-1.502 7.936-2.243 12.231-2.243zm-102.761 77.855c12.761-22.448 31.501-41.943 54.401-56.992-3.42 8.264-5.827 17.798-7.119 28.451-3.354 27.648 1.134 60.171 12.637 92.31l-72.498 28.328c-9.056-29.312-4.689-61.721 12.579-92.097z"/><path d="m427.497 268.824c-19.492 0-29.709 5.837-38.723 10.988-8.463 4.835-15.771 9.012-31.281 9.012-15.509 0-22.817-4.176-31.28-9.012-9.013-5.151-19.229-10.988-38.721-10.988s-29.707 5.837-38.72 10.988c-6.688 3.821-12.463 7.122-22.107 8.434-4.104.559-6.979 4.338-6.42 8.443.558 4.104 4.329 6.975 8.443 6.42 12.533-1.705 20.499-6.257 27.526-10.273 8.462-4.835 15.771-9.012 31.278-9.012s22.816 4.176 31.279 9.012c9.013 5.15 19.229 10.988 38.722 10.988s29.709-5.837 38.723-10.988c8.463-4.835 15.771-9.012 31.281-9.012s22.818 4.176 31.281 9.012c9.014 5.151 19.23 10.988 38.723 10.988 4.143 0 7.5-3.358 7.5-7.5s-3.357-7.5-7.5-7.5c-15.51 0-22.818-4.176-31.281-9.012-9.014-5.15-19.231-10.988-38.723-10.988z"/><path d="m186.216 279.813c-9.013-5.15-19.229-10.988-38.719-10.988-19.491 0-29.707 5.838-38.72 10.988-8.462 4.835-15.77 9.012-31.278 9.012s-22.816-4.176-31.278-9.012c-9.013-5.15-19.229-10.988-38.721-10.988-4.142 0-7.5 3.358-7.5 7.5s3.358 7.5 7.5 7.5c15.508 0 22.816 4.176 31.278 9.012 9.013 5.15 19.229 10.988 38.721 10.988 19.491 0 29.707-5.838 38.72-10.988 8.462-4.835 15.77-9.012 31.278-9.012 15.507 0 22.815 4.176 31.277 9.012 3.597 2.056 8.178.806 10.233-2.791s.805-8.178-2.791-10.233z"/><path d="m497.5 340.824c-15.51 0-22.818-4.176-31.281-9.012-9.014-5.15-19.23-10.988-38.723-10.988s-29.709 5.838-38.723 10.988c-8.463 4.835-15.771 9.012-31.281 9.012-15.509 0-22.817-4.176-31.28-9.012-9.013-5.151-19.229-10.988-38.721-10.988s-29.707 5.837-38.72 10.988c-1.374.785-2.748 1.571-4.159 2.335-3.642 1.974-4.994 6.526-3.02 10.167 1.973 3.641 6.524 4.995 10.167 3.02 1.51-.818 2.981-1.659 4.453-2.5 8.462-4.835 15.771-9.011 31.278-9.011s22.816 4.176 31.279 9.012c9.013 5.15 19.229 10.988 38.722 10.988s29.709-5.838 38.723-10.988c8.463-4.835 15.771-9.012 31.281-9.012s22.818 4.176 31.281 9.012c9.014 5.15 19.23 10.988 38.723 10.988 4.143 0 7.5-3.358 7.5-7.5s-3.356-7.499-7.499-7.499z"/><path d="m147.497 320.824c-19.491 0-29.707 5.838-38.72 10.988-4.182 2.39-8.133 4.647-12.93 6.292-3.918 1.344-6.005 5.609-4.662 9.527 1.344 3.918 5.607 6.003 9.527 4.662 6.14-2.105 10.902-4.827 15.507-7.458 8.462-4.835 15.77-9.012 31.278-9.012 15.507 0 22.815 4.176 31.277 9.012 6.708 3.833 14.311 8.178 25.914 10.035.401.064.8.095 1.194.095 3.62 0 6.806-2.627 7.396-6.316.654-4.09-2.131-7.937-6.221-8.591-8.904-1.425-14.436-4.586-20.841-8.247-9.013-5.149-19.228-10.987-38.719-10.987z"/><path d="m7.5 335.824c15.508 0 22.816 4.176 31.278 9.012 9.013 5.15 19.229 10.988 38.721 10.988 4.142 0 7.5-3.358 7.5-7.5s-3.358-7.5-7.5-7.5c-15.508 0-22.816-4.176-31.278-9.012-9.013-5.15-19.229-10.988-38.721-10.988-4.142 0-7.5 3.358-7.5 7.5s3.358 7.5 7.5 7.5z"/><path d="m411.503 133.824c21.78 0 39.5-17.72 39.5-39.5s-17.72-39.5-39.5-39.5-39.5 17.72-39.5 39.5 17.72 39.5 39.5 39.5zm0-64c13.51 0 24.5 10.991 24.5 24.5s-10.99 24.5-24.5 24.5-24.5-10.991-24.5-24.5 10.991-24.5 24.5-24.5z"/><path d="m411.503 48.174c4.143 0 7.5-3.358 7.5-7.5v-13.85c0-4.142-3.357-7.5-7.5-7.5s-7.5 3.358-7.5 7.5v13.85c0 4.142 3.358 7.5 7.5 7.5z"/><path d="m419.003 161.824v-13.85c0-4.142-3.357-7.5-7.5-7.5s-7.5 3.358-7.5 7.5v13.85c0 4.142 3.357 7.5 7.5 7.5s7.5-3.357 7.5-7.5z"/><path d="m449.44 63.888c1.919 0 3.839-.732 5.304-2.197l9.793-9.793c2.929-2.929 2.929-7.678-.001-10.606-2.928-2.93-7.677-2.929-10.606 0l-9.793 9.793c-2.929 2.929-2.929 7.678.001 10.606 1.463 1.465 3.383 2.197 5.302 2.197z"/><path d="m363.774 149.554c1.919 0 3.839-.732 5.304-2.197l9.793-9.793c2.929-2.929 2.929-7.678-.001-10.606-2.928-2.93-7.677-2.929-10.606 0l-9.793 9.793c-2.929 2.929-2.929 7.678.001 10.606 1.463 1.465 3.383 2.197 5.302 2.197z"/><path d="m457.654 94.324c0 4.142 3.357 7.5 7.5 7.5h13.85c4.143 0 7.5-3.358 7.5-7.5s-3.357-7.5-7.5-7.5h-13.85c-4.143 0-7.5 3.358-7.5 7.5z"/><path d="m344.003 101.824h13.85c4.143 0 7.5-3.358 7.5-7.5s-3.357-7.5-7.5-7.5h-13.85c-4.143 0-7.5 3.358-7.5 7.5s3.358 7.5 7.5 7.5z"/><path d="m459.233 149.554c1.919 0 3.839-.732 5.303-2.197 2.93-2.929 2.93-7.677.001-10.606l-9.793-9.793c-2.929-2.929-7.678-2.93-10.606 0-2.93 2.929-2.93 7.677-.001 10.606l9.793 9.793c1.464 1.465 3.383 2.197 5.303 2.197z"/><path d="m368.263 61.691c1.465 1.465 3.384 2.197 5.304 2.197 1.919 0 3.839-.732 5.303-2.197 2.93-2.929 2.93-7.677.001-10.606l-9.793-9.793c-2.93-2.929-7.679-2.93-10.606 0-2.93 2.929-2.93 7.677-.001 10.606z"/><path d="m471.664 469.089c-2.56-1.726-6.019-1.643-8.525.14-2.646 1.883-3.761 5.367-2.752 8.445.945 2.884 3.624 4.943 6.649 5.138 3.273.211 6.376-1.842 7.504-4.908 1.177-3.199-.022-6.932-2.876-8.815z"/><path d="m234.713 439.459c-1.195-2.895-4.16-4.776-7.292-4.624-3.266.158-6.104 2.505-6.905 5.666-1.687 6.652 6.125 11.886 11.68 7.891 2.771-1.993 3.847-5.785 2.517-8.933z"/><path d="m444.423 464.169c-1.221-2.886-4.146-4.782-7.297-4.621-3.137.161-5.884 2.311-6.802 5.309-1.999 6.523 5.435 12.134 11.182 8.51 3.031-1.911 4.314-5.883 2.917-9.198z"/><path d="m48.533 475.328c-1.26-2.983-4.364-4.907-7.608-4.598-3.022.288-5.597 2.389-6.494 5.287-.907 2.929.155 6.221 2.57 8.099 2.534 1.97 6.089 2.073 8.762.312 2.972-1.957 4.08-5.828 2.77-9.1z"/><path d="m224.743 419.569c1.822-2.768 1.622-6.512-.538-9.036-1.942-2.269-5.146-3.174-7.988-2.262-3.015.968-5.13 3.783-5.209 6.953-.078 3.124 1.865 6.032 4.771 7.167 3.263 1.275 7.002.055 8.964-2.822z"/><path d="m461.503 453.098c6.7 0 10.018-8.56 5.036-13.061-2.425-2.19-6.085-2.55-8.889-.874-2.746 1.642-4.162 4.953-3.458 8.074.761 3.375 3.838 5.861 7.311 5.861z"/></g></svg>