<svg id="Capa_1" enable-background="new 0 0 505 505" height="512" viewBox="0 0 505 505" width="512" xmlns="http://www.w3.org/2000/svg"><g><path d="m205.836 299.475c-4.061-.831-8.021 1.785-8.852 5.844-8.702 42.526-46.577 73.392-90.059 73.392-50.688 0-91.925-41.238-91.925-91.927 0-50.688 41.237-91.926 91.926-91.926 11.783 0 23.253 2.196 34.092 6.527 3.846 1.537 8.21-.334 9.748-4.182 1.537-3.846-.336-8.21-4.182-9.747-12.617-5.042-25.96-7.598-39.658-7.598h-75.423c-4.143 0-7.5 3.358-7.5 7.5s3.357 7.5 7.5 7.5h20.868c-31.332 18.666-52.371 52.883-52.371 91.926 0 39.044 21.039 73.261 52.371 91.926h-35.868c-4.143 0-7.5 3.358-7.5 7.5s3.357 7.5 7.5 7.5h90.423c50.574 0 94.63-35.909 104.754-85.385.83-4.057-1.786-8.02-5.844-8.85z"/><path d="m211.902 266.365c-4.257-22.009-15.165-41.824-31.545-57.305-3.009-2.845-7.756-2.713-10.603.299-2.845 3.01-2.711 7.757.3 10.602 14.085 13.312 23.463 30.343 27.121 49.252.693 3.586 3.834 6.077 7.355 6.077.472 0 .951-.045 1.433-.138 4.067-.786 6.726-4.72 5.939-8.787z"/><path d="m398.074 179.859c-9.348 0-18.628 1.209-27.582 3.593-4.003 1.066-6.384 5.175-5.317 9.177 1.065 4.003 5.174 6.383 9.177 5.318 7.695-2.049 15.677-3.088 23.723-3.088 50.688 0 91.926 41.238 91.926 91.926 0 27.54-12.198 53.399-33.467 70.946-3.194 2.636-3.647 7.363-1.012 10.558 1.483 1.798 3.628 2.727 5.789 2.727 1.681 0 3.372-.562 4.77-1.715 24.734-20.407 38.92-50.483 38.92-82.517-.001-58.959-47.968-106.925-106.927-106.925z"/><path d="m438.089 369.57c-12.524 6.065-25.987 9.141-40.015 9.141-50.688 0-91.926-41.238-91.926-91.926 0-26.229 11.25-51.276 30.865-68.719 3.096-2.752 3.374-7.493.621-10.588-2.751-3.095-7.492-3.373-10.588-.621-22.814 20.287-35.898 49.419-35.898 79.928 0 39.044 21.039 73.261 52.371 91.926h-72.017c-4.143 0-7.5 3.358-7.5 7.5s3.357 7.5 7.5 7.5h126.571c16.311 0 31.973-3.58 46.552-10.641 3.729-1.805 5.287-6.291 3.481-10.019-1.802-3.726-6.287-5.288-10.017-3.481z"/><path d="m352.71 230.592c-2.922-2.936-7.671-2.945-10.606-.023-15.062 14.997-23.357 34.962-23.357 56.216 0 43.741 35.587 79.328 79.328 79.328s79.327-35.586 79.327-79.328-35.586-79.328-79.327-79.328c-4.549 0-9.112.389-13.566 1.157-4.081.704-6.82 4.583-6.116 8.665.703 4.082 4.578 6.821 8.665 6.117 3.613-.623 7.32-.939 11.018-.939 35.47 0 64.327 28.857 64.327 64.328s-28.857 64.328-64.327 64.328c-35.471 0-64.328-28.857-64.328-64.328 0-17.235 6.727-33.425 18.941-45.586 2.934-2.923 2.944-7.672.021-10.607z"/><path d="m167.026 235.007c-2.706-3.139-7.444-3.486-10.577-.783-3.138 2.705-3.487 7.441-.782 10.578 5.85 6.784 10.142 14.54 12.758 23.053.991 3.226 3.959 5.299 7.166 5.299.729 0 1.473-.107 2.206-.333 3.959-1.217 6.183-5.413 4.966-9.372-3.23-10.508-8.524-20.078-15.737-28.442z"/><path d="m106.926 222.457c6.929 0 13.742 1.094 20.252 3.251 3.934 1.305 8.176-.829 9.479-4.76 1.303-3.932-.828-8.176-4.76-9.479-8.035-2.663-16.436-4.013-24.971-4.013-43.741 0-79.328 35.586-79.328 79.328s35.587 79.328 79.328 79.328c36.164 0 67.745-24.422 76.799-59.39 1.038-4.01-1.371-8.102-5.381-9.141-4.015-1.038-8.103 1.372-9.141 5.381-7.34 28.35-32.949 48.149-62.277 48.149-35.471 0-64.328-28.857-64.328-64.328s28.857-64.326 64.328-64.326z"/><path d="m161.125 143.168h9.243l8.975 17.59-78.719 121.959c-1.489 2.307-1.598 5.244-.284 7.655s3.84 3.912 6.586 3.912h134.986l-10.517 34.224c-.052.17-.09.341-.13.512h-6.639c-4.143 0-7.5 3.358-7.5 7.5s3.357 7.5 7.5 7.5h31.362c4.143 0 7.5-3.358 7.5-7.5s-3.357-7.5-7.5-7.5h-9.059l11.993-39.027 73.721-113.791 58.764 114.018c1.332 2.583 3.954 4.065 6.673 4.065 1.157 0 2.331-.269 3.43-.835 3.683-1.897 5.129-6.42 3.231-10.103l-80.947-157.059h44.839c5.317 0 9.643 4.325 9.643 9.642s-4.325 9.642-9.643 9.642h-9.143c-4.143 0-7.5 3.358-7.5 7.5s3.357 7.5 7.5 7.5h9.143c13.588 0 24.643-11.055 24.643-24.642 0-13.588-11.055-24.642-24.643-24.642h-57.142c-2.615 0-5.042 1.363-6.404 3.596-1.361 2.233-1.461 5.015-.263 7.34l16.157 31.349h-128.464l-5.31-10.406h13.43c4.143 0 7.5-3.358 7.5-7.5s-3.357-7.5-7.5-7.5h-39.513c-7.463 0-14.276-4.68-16.955-11.646-1.486-3.866-5.827-5.796-9.691-4.309-3.866 1.487-5.796 5.826-4.309 9.692 4.891 12.719 17.331 21.264 30.956 21.264zm26.101 33.039 52.593 103.077h-119.126zm132.486-7.633-66.874 103.223-52.667-103.223z"/><path d="m261.836 239.835c4.143 0 7.5-3.358 7.5-7.5s-3.357-7.5-7.5-7.5h-14.666c-4.143 0-7.5 3.358-7.5 7.5s3.357 7.5 7.5 7.5z"/><path d="m64.503 167.501h83c4.143 0 7.5-3.358 7.5-7.5s-3.357-7.5-7.5-7.5h-83c-4.143 0-7.5 3.358-7.5 7.5s3.357 7.5 7.5 7.5z"/><path d="m303.003 362.001c0-4.142-3.357-7.5-7.5-7.5h-91c-4.143 0-7.5 3.358-7.5 7.5s3.357 7.5 7.5 7.5h91c4.143 0 7.5-3.358 7.5-7.5z"/></g></svg>