<svg id="Capa_1" enable-background="new 0 0 492.341 492.341" height="512" viewBox="0 0 492.341 492.341" width="512" xmlns="http://www.w3.org/2000/svg"><g><path d="m324.912 426.158h-35.917l-64.345-181.476v-143.047l122.678 212.485c1.389 2.406 3.91 3.751 6.502 3.751 1.272 0 2.562-.324 3.743-1.006 3.587-2.071 4.816-6.658 2.745-10.245l-136.673-236.726c-1.34-2.32-3.815-3.75-6.495-3.75s-5.155 1.43-6.495 3.75l-58.143 100.706c-2.071 3.587-.842 8.174 2.745 10.245s8.175.841 10.245-2.745l44.147-76.466v143.048l-64.345 181.475h-123.017l127.4-220.664c2.071-3.587.842-8.174-2.745-10.245-3.589-2.072-8.175-.842-10.245 2.745l-133.896 231.915c-1.34 2.32-1.34 5.18 0 7.5s3.815 3.75 6.495 3.75h141.307 133.094 41.215c4.143 0 7.5-3.358 7.5-7.5s-3.358-7.5-7.5-7.5zm-163.692 0 55.93-157.743 55.93 157.743z"/><path d="m489.956 381.011c-.399-4.123-4.065-7.139-8.188-6.741-4.123.4-7.142 4.066-6.741 8.189 1.564 16.134-.387 29.161-5.801 38.719-5.583 9.857-16.393 15.98-28.21 15.98h-62.009c-6.551 0-18.591-2.54-25.636-19.546-8.766-21.163-5.107-56.631 18.939-80.678 21.752-21.753 27.992-44.646 28.694-62.354 13.435 21.893 28.624 56.602 20.194 92.851-.741 3.186.668 6.485 3.482 8.152 2.813 1.667 6.385 1.317 8.823-.864.988-.884 19.321-17.602 27.318-46.22 3.03 7.67 6.229 16.704 8.86 26.276 1.098 3.993 5.223 6.345 9.22 5.243 3.994-1.098 6.342-5.226 5.243-9.22-7.827-28.467-19.996-51.69-20.51-52.665-1.609-3.049-5.091-4.607-8.437-3.781-3.347.829-5.697 3.833-5.697 7.28 0 16.964-5.15 31.092-10.866 41.547-1.2-55.456-41.628-99.973-43.62-102.131-2.444-2.65-6.426-3.169-9.482-1.257-3.058 1.912-4.315 5.744-3.003 9.103.649 1.662 15.488 41.118-20.828 77.434-28.957 28.958-33.082 70.729-22.19 97.024 7.583 18.307 21.979 28.806 39.494 28.806h62.009c17.211 0 33.021-9.039 41.263-23.588 6.964-12.294 9.547-28.295 7.679-47.559z"/><path d="m383.012 459.987-28.499 14.998c-3.665 1.929-5.073 6.464-3.144 10.13 1.343 2.551 3.947 4.009 6.644 4.009 1.177 0 2.372-.278 3.486-.864l28.499-14.998c3.665-1.929 5.073-6.464 3.144-10.13-1.929-3.665-6.463-5.075-10.13-3.145z"/><path d="m464.993 474.985-28.498-14.998c-3.666-1.93-8.202-.52-10.13 3.145-1.93 3.666-.521 8.201 3.144 10.13l28.498 14.998c1.114.586 2.31.864 3.486.864 2.696 0 5.302-1.458 6.644-4.009 1.929-3.666.521-8.201-3.144-10.13z"/><path d="m409.753 459.124c-4.143 0-7.5 3.358-7.5 7.5v18.216c0 4.142 3.357 7.5 7.5 7.5s7.5-3.358 7.5-7.5v-18.216c0-4.142-3.357-7.5-7.5-7.5z"/><path d="m354.704 141.456c14.961 13.327 33.896 20.52 53.769 20.519 1.586 0 3.181-.046 4.777-.138 21.599-1.248 41.419-10.833 55.81-26.988 29.706-33.349 26.742-84.649-6.607-114.355-19.749-17.593-46.93-24.428-72.719-18.281-3.472.828-5.88 3.988-5.756 7.555.123 3.567 2.743 6.553 6.265 7.139 7.832 1.303 15.113 4.79 21.057 10.083 8.401 7.483 13.385 17.79 14.034 29.022.648 11.232-3.115 22.044-10.6 30.446-7.483 8.401-17.79 13.385-29.022 14.034-11.229.647-22.045-3.115-30.445-10.599-5.941-5.292-10.244-12.124-12.441-19.756-.987-3.43-4.256-5.69-7.812-5.4-3.558.289-6.42 3.044-6.842 6.588-3.139 26.321 6.78 52.538 26.532 70.131zm31.872-25.988c15.232-.88 29.21-7.639 39.358-19.032 10.148-11.394 15.253-26.057 14.373-41.289-.863-14.949-7.39-28.689-18.401-38.788 11.214 2.308 21.793 7.518 30.569 15.335 27.173 24.204 29.588 66.003 5.383 93.177-11.726 13.164-27.875 20.973-45.474 21.99-17.606 1.015-34.541-4.881-47.704-16.606-8.775-7.817-15.169-17.727-18.754-28.6 11.301 9.777 25.705 14.674 40.65 13.813z"/><path d="m250.915 51.363h22.499v22.499c0 4.142 3.357 7.5 7.5 7.5s7.5-3.358 7.5-7.5v-22.499h22.498c4.143 0 7.5-3.358 7.5-7.5s-3.357-7.5-7.5-7.5h-22.498v-22.499c0-4.142-3.357-7.5-7.5-7.5s-7.5 3.358-7.5 7.5v22.499h-22.499c-4.143 0-7.5 3.358-7.5 7.5s3.357 7.5 7.5 7.5z"/><path d="m44.833 136.858h22.498v22.499c0 4.142 3.357 7.5 7.5 7.5s7.5-3.358 7.5-7.5v-22.499h22.499c4.143 0 7.5-3.358 7.5-7.5s-3.357-7.5-7.5-7.5h-22.499v-22.498c0-4.142-3.357-7.5-7.5-7.5s-7.5 3.358-7.5 7.5v22.499h-22.498c-4.143 0-7.5 3.358-7.5 7.5s3.357 7.499 7.5 7.499z"/></g></svg>