<svg height="512pt" viewBox="0 -5 512 512" width="512pt" xmlns="http://www.w3.org/2000/svg"><path d="m212.046875 280.367188c13.367187 0 24.246094-10.878907 24.246094-24.246094v-65.339844c10.152343-4.917969 17.167969-15.328125 17.167969-27.34375v-9.226562c0-11.132813-7.191407-20.613282-17.167969-24.058594v-24.511719c0-58.25-47.390625-105.640625-105.644531-105.640625h-7.835938c-58.253906 0-105.640625 47.390625-105.640625 105.640625v24.511719c-9.980469 3.441406-17.171875 12.921875-17.171875 24.058594v9.226562c0 12.015625 7.019531 22.425781 17.171875 27.34375v65.339844c0 13.367187 10.875 24.242187 24.242187 24.242187h170.632813zm-105.675781-21.675782h40.71875c9.324218 0 18.261718-1.695312 26.523437-4.78125v11.523438h-93.765625v-11.523438c8.261719 3.085938 17.199219 4.78125 26.523438 4.78125zm105.675781 6.742188h-23.5v-19.089844c16.457031-10.753906 28.503906-27.699219 32.8125-47.507812v57.285156c0 5.132812-4.179687 9.3125-9.3125 9.3125zm-17.339844-174.144532c-.609375.789063-1.980469 2.117188-4.308593 2.117188h-127.335938c-2.328125 0-3.699219-1.328125-4.308594-2.117188-1.0625-1.382812-1.414062-3.152343-.964844-4.855468 7.0625-26.753906 31.339844-45.4375 59.039063-45.4375h19.808594c27.699219 0 51.976562 18.683594 59.039062 45.4375.449219 1.703125.09375 3.472656-.96875 4.855468zm43.820313 72.148438c0 8.503906-6.917969 15.425781-15.425782 15.429688v-35.171876h4.910157c5.796875 0 10.515625 4.714844 10.515625 10.515626zm-115.714844-148.503906h7.835938c50.019531 0 90.710937 40.691406 90.710937 90.707031v1.953125c-2.109375-9.714844-6.113281-18.929688-11.886719-27.207031-9.527344-32.097657-39.144531-54.324219-72.835937-54.324219h-19.808594c-34.472656 0-64.6875 23.257812-73.480469 56.558594-1.640625 6.21875-.335937 12.699218 3.578125 17.78125 3.882813 5.046875 9.765625 7.9375 16.136719 7.9375h127.335938c5.3125 0 10.277343-2.015625 14.035156-5.605469 2.460937 6.691406 3.738281 13.800781 3.738281 21.082031v58.863282c0 33.679687-27.402344 61.078124-61.082031 61.078124h-40.71875c-33.679688 0-61.078125-27.398437-61.078125-61.078124v-46.433594c0-.007813.003906-.011719.003906-.019532 0-.003906-.003906-.011718-.003906-.015624v-6.417969c0-4.125-3.34375-7.46875-7.464844-7.46875-2.300781 0-4.351563 1.039062-5.722656 2.671875v-19.355469c0-50.015625 40.691406-90.707031 90.707031-90.707031zm-107.878906 139.277344c0-5.800782 4.71875-10.515626 10.515625-10.515626h4.910156v35.171876c-8.507813-.003907-15.425781-6.925782-15.425781-15.429688zm17.171875 101.910156v-57.285156c4.304687 19.8125 16.355469 36.753906 32.808593 47.507812v19.089844h-23.5c-5.132812 0-9.308593-4.179688-9.308593-9.3125zm0 0"/><path d="m494.828125 130.152344v-37.761719c0-47.878906-38.949219-86.832031-86.832031-86.832031h-45.457032c-47.878906 0-86.832031 38.949218-86.832031 86.832031v37.757813c-9.976562 3.445312-17.167969 12.925781-17.167969 24.0625v9.222656c0 16.746094 13.621094 30.367187 30.363282 30.367187h.816406c3.234375 21.964844 15.898438 40.886719 33.734375 52.542969v2.589844c0 17.332031 14.097656 31.429687 31.429687 31.429687h60.773438c17.328125 0 31.429688-14.097656 31.429688-31.429687v-2.589844c17.832031-11.65625 30.5-30.578125 33.734374-52.542969h.8125c16.746094 0 30.367188-13.621093 30.367188-30.367187v-9.222656c0-11.136719-7.191406-20.617188-17.171875-24.058594zm-132.289063-109.660156h45.457032c39.648437 0 71.898437 32.25 71.898437 71.898437v15.273437c-7.425781-34.179687-37.898437-59.859374-74.265625-59.859374h-40.71875c-36.371094 0-66.839844 25.679687-74.269531 59.859374v-15.273437c0-39.648437 32.253906-71.898437 71.898437-71.898437zm-89.066406 142.945312v-9.226562c0-5.800782 4.71875-10.515626 10.515625-10.515626h4.910157v35.171876c-8.507813-.003907-15.425782-6.925782-15.425782-15.429688zm142.183594 101.996094h-60.773438c-7.242187 0-13.394531-4.699219-15.605468-11.199219 8.011718 2.878906 16.640625 4.457031 25.632812 4.457031h40.71875c8.992188 0 17.617188-1.578125 25.632813-4.457031-2.214844 6.5-8.367188 11.199219-15.605469 11.199219zm51.050781-82.753906c0 33.679687-27.398437 61.078124-61.078125 61.078124h-40.71875c-32.367187 0-58.921875-25.3125-60.941406-57.183593.050781-.632813.03125-1.277344-.085938-1.925781-.023437-.65625-.050781-1.308594-.050781-1.96875v-58.863282c0-33.679687 27.398438-61.078125 61.078125-61.078125h40.71875c33.679688 0 61.078125 27.398438 61.078125 61.078125zm30.359375-19.242188c0 8.503906-6.917968 15.425781-15.425781 15.429688v-35.171876h4.910156c5.796875 0 10.515625 4.714844 10.515625 10.515626zm0 0"/><path d="m440.296875 149.414062c0 7.027344-5.699219 12.726563-12.730469 12.726563-7.027344 0-12.726562-5.699219-12.726562-12.726563 0-7.03125 5.699218-12.730468 12.726562-12.730468 7.03125 0 12.730469 5.699218 12.730469 12.730468zm0 0"/><path d="m355.699219 149.414062c0 7.027344-5.699219 12.726563-12.730469 12.726563-7.027344 0-12.726562-5.699219-12.726562-12.726563 0-7.03125 5.699218-12.730468 12.726562-12.730468 7.03125 0 12.730469 5.699218 12.730469 12.730468zm0 0"/><path d="m181.757812 149.414062c0 7.027344-5.699218 12.726563-12.726562 12.726563-7.03125 0-12.730469-5.699219-12.730469-12.726563 0-7.03125 5.699219-12.730468 12.730469-12.730468 7.027344 0 12.726562 5.699218 12.726562 12.730468zm0 0"/><path d="m97.160156 149.414062c0 7.027344-5.699218 12.726563-12.726562 12.726563-7.03125 0-12.730469-5.699219-12.730469-12.726563 0-7.03125 5.699219-12.730468 12.730469-12.730468 7.027344 0 12.726562 5.699218 12.726562 12.730468zm0 0"/><path d="m360.828125 382.835938v-8.074219c0-50.75-41.289063-92.039063-92.042969-92.039063h-22.542968c-50.75 0-92.039063 41.289063-92.039063 92.039063v7.707031c-12.542969 1.625-22.261719 12.367188-22.261719 25.34375v8.34375c0 17.464844 13.804688 31.765625 31.078125 32.570312 14.765625 31.152344 46.515625 52.753907 83.222657 52.753907h22.542968c36.71875 0 68.476563-21.613281 83.238282-52.78125 16.886718-1.027344 30.3125-15.082031 30.3125-32.222657v-7.109374c0-13.03125-9.238282-23.9375-21.507813-26.53125zm-213.953125 33.316406v-8.34375c0-4.707032 3.078125-8.703125 7.328125-10.09375v11.722656c0 7.828125.984375 15.429688 2.832031 22.691406-5.992187-2.832031-10.160156-8.917968-10.160156-15.976562zm121.910156 70.394531h-22.542968c-42.515626 0-77.105469-34.59375-77.105469-77.109375v-19.710938c0-.003906 0-.007812 0-.011718s0-.003906 0-.011719v-.84375c14.566406-18.484375 37.042969-29.453125 60.601562-29.453125h55.550781c11.820313 0 23.15625 2.605469 33.699219 7.738281 3.707031 1.808594 8.175781.265625 9.984375-3.441406 1.804688-3.707031.261719-8.175781-3.445312-9.984375-12.59375-6.132812-26.132813-9.246094-40.238282-9.246094h-55.550781c-22.21875 0-43.625 8.167969-60.207031 22.472656 1.816406-17.574218 9.757812-34.246093 22.265625-46.730468 1.707031-1.703125 3.492187-3.324219 5.351563-4.863282 12.714843-10.527343 28.761718-16.785156 45.25-17.597656 1.277343-.0625 2.554687-.097656 3.84375-.097656h22.546874c42.515626 0 77.105469 34.589844 77.105469 77.105469v14.945312.007813.011718 19.710938c0 42.515625-34.589843 77.109375-77.109375 77.109375zm98.617188-70.070313c0 6.675782-3.796875 12.472657-9.339844 15.375 1.800781-7.175781 2.765625-14.683593 2.765625-22.414062v-10.875c3.898437 2.035156 6.570313 6.109375 6.570313 10.804688v7.109374zm0 0"/><path d="m232.65625 401.164062c0 6.136719-4.976562 11.109376-11.109375 11.109376-6.136719 0-11.109375-4.972657-11.109375-11.109376 0-6.132812 4.972656-11.105468 11.109375-11.105468 6.132813 0 11.109375 4.972656 11.109375 11.105468zm0 0"/><path d="m304.589844 401.164062c0 6.136719-4.972656 11.109376-11.109375 11.109376-6.132813 0-11.109375-4.972657-11.109375-11.109376 0-6.132812 4.976562-11.105468 11.109375-11.105468 6.136719 0 11.109375 4.972656 11.109375 11.105468zm0 0"/><path d="m291.035156 420.582031h-67.042968c-3.167969 0-6.195313 1.355469-8.3125 3.714844-2.117188 2.359375-3.132813 5.523437-2.789063 8.675781 2.488281 22.785156 21.671875 39.96875 44.625 39.96875 22.949219 0 42.132813-17.183594 44.625-39.96875.34375-3.15625-.675781-6.316406-2.792969-8.679687-2.113281-2.359375-5.144531-3.710938-8.3125-3.710938zm-33.519531 37.425781c-13.882813 0-25.699219-9.414062-29.027344-22.492187h58.050781c-3.328124 13.078125-15.144531 22.492187-29.023437 22.492187zm0 0"/><path d="m95.707031 197.035156c5.933594 10.230469 17.824219 16.582032 31.023438 16.582032 13.203125 0 25.089843-6.351563 31.027343-16.582032 2.066407-3.566406.855469-8.136718-2.710937-10.207031-3.566406-2.066406-8.136719-.855469-10.207031 2.710937-3.226563 5.558594-10.332032 9.144532-18.109375 9.144532-7.777344 0-14.882813-3.585938-18.109375-9.144532-2.066406-3.566406-6.636719-4.777343-10.207032-2.710937-3.566406 2.070313-4.777343 6.640625-2.707031 10.207031zm0 0"/><path d="m413.585938 186.828125c-3.570313-2.066406-8.136719-.855469-10.207032 2.710937-3.226562 5.554688-10.332031 9.144532-18.109375 9.144532-7.777343 0-14.882812-3.589844-18.109375-9.144532-2.070312-3.566406-6.640625-4.777343-10.207031-2.710937-3.566406 2.070313-4.777344 6.640625-2.710937 10.207031 5.9375 10.230469 17.824218 16.582032 31.027343 16.582032 13.199219 0 25.089844-6.351563 31.023438-16.582032 2.070312-3.566406.859375-8.136718-2.707031-10.207031zm0 0"/></svg>