<svg id="Capa_1" enable-background="new 0 0 505.398 505.398" height="512" viewBox="0 0 505.398 505.398" width="512" xmlns="http://www.w3.org/2000/svg"><g><path d="m154.104 132.811c4.143 0 7.5-3.358 7.5-7.5v-109.824h137.188v19.589h-26.762c-2.934-6.936-9.807-11.815-17.799-11.815-10.65 0-19.315 8.665-19.315 19.315 0 10.651 8.665 19.316 19.315 19.316 7.992 0 14.866-4.88 17.799-11.816h26.762v14.972c0 4.455.276 8.868.816 13.22h-23.438c-2.934-6.936-9.807-11.814-17.799-11.814-10.65 0-19.315 8.665-19.315 19.316 0 10.65 8.665 19.315 19.315 19.315 7.993 0 14.866-4.88 17.8-11.817h26.415c2.164 7.853 5.241 15.406 9.164 22.539h-17.336c-2.934-6.936-9.807-11.814-17.799-11.814-10.65 0-19.315 8.665-19.315 19.315s8.665 19.315 19.315 19.315c7.992 0 14.866-4.88 17.8-11.816h27.353c2.466 3.085 5.113 6.057 7.947 8.891 4.183 4.182 8.743 8.036 13.554 11.454 1.318.937 2.836 1.387 4.338 1.387 2.347 0 4.657-1.098 6.12-3.156 2.399-3.376 1.607-8.059-1.769-10.458-4.13-2.935-8.046-6.244-11.637-9.835-17.107-17.107-26.528-39.852-26.528-64.042v-57.061c0-4.142-3.357-7.5-7.5-7.5h-152.189c-4.143 0-7.5 3.358-7.5 7.5v117.325c0 4.142 3.358 7.499 7.5 7.499zm100.126-85.919c-2.38 0-4.315-1.936-4.315-4.316 0-2.379 1.936-4.315 4.315-4.315s4.315 1.936 4.315 4.315c.001 2.38-1.935 4.316-4.315 4.316zm4.141 43.192c-2.38 0-4.315-1.936-4.315-4.315 0-2.38 1.936-4.316 4.315-4.316s4.315 1.936 4.315 4.316c.001 2.379-1.935 4.315-4.315 4.315zm18.244 37.539c-2.38 0-4.315-1.936-4.315-4.315s1.936-4.315 4.315-4.315 4.315 1.936 4.315 4.315-1.935 4.315-4.315 4.315z"/><path d="m503.737 288.405c-1.424-1.766-3.57-2.792-5.839-2.792h-38.435c-2.946 0-5.62 1.726-6.834 4.411-5.182 11.462-16.632 18.869-29.171 18.869h-2.447v-29.687h48.881c16.009 0 29.032-13.024 29.032-29.032 0-25.31-9.861-49.098-27.768-66.982-17.807-17.784-41.438-27.573-66.556-27.573-.079 0-.16 0-.239 0-12.21 0-24.054-2.387-35.2-7.094-3.815-1.611-8.216.175-9.827 3.992-1.611 3.816.176 8.215 3.991 9.827 13.005 5.492 26.81 8.275 41.035 8.275h.24c21.113 0 40.982 8.232 55.955 23.187 15.069 15.05 23.368 35.069 23.368 56.369 0 7.737-6.295 14.032-14.032 14.032h-48.881-45.823-44.004l-66.549-37.131c-.006-.004-.013-.006-.02-.009-.267-.148-.544-.279-.83-.394-.05-.021-.102-.037-.152-.056-.229-.086-.462-.162-.7-.226-.076-.021-.151-.041-.227-.058-.231-.054-.466-.097-.704-.13-.062-.009-.123-.021-.185-.028-.275-.031-.553-.049-.836-.049h-64.48c-4.143 0-7.5 3.358-7.5 7.5s3.357 7.5 7.5 7.5h56.981v23.082h-29.981c-4.143 0-7.5 3.358-7.5 7.5s3.357 7.5 7.5 7.5h37.481c4.143 0 7.5-3.358 7.5-7.5v-25.309l57.099 31.858c1.117.624 2.375.951 3.654.951h45.954v29.687h-30.688c-4.143 0-7.5 3.358-7.5 7.5s3.357 7.5 7.5 7.5h30.688 45.823 2.447c16.756 0 32.183-8.993 40.558-23.279h23.901c-4.229 11.465-11.514 21.733-21.07 29.534-12.207 9.957-27.616 15.44-43.389 15.44h-52.958c-4.143 0-7.5 3.358-7.5 7.5s3.357 7.5 7.5 7.5h52.959c19.218 0 37.994-6.683 52.871-18.818 14.645-11.953 24.907-28.667 28.897-47.066.482-2.22-.067-4.535-1.49-6.301zm-113.549 20.487v-29.687h15.823v29.687z"/><path d="m362.574 429.937h-38.434c-2.946 0-5.62 1.726-6.834 4.411-5.182 11.462-16.632 18.869-29.171 18.869h-2.447v-29.687h48.881c16.009 0 29.032-13.024 29.032-29.032 0-25.31-9.861-49.098-27.768-66.982-17.807-17.784-41.438-27.573-66.556-27.573-.08 0-.159 0-.239 0-24.192 0-46.934-9.419-64.041-26.528-17.107-17.107-26.529-39.851-26.529-64.042v-57.061c0-4.142-3.357-7.5-7.5-7.5h-152.188c-4.143 0-7.5 3.358-7.5 7.5v79.999c0 4.142 3.357 7.5 7.5 7.5s7.5-3.358 7.5-7.5v-72.499h137.188v19.588h-26.762c-2.934-6.936-9.807-11.815-17.799-11.815-10.65 0-19.315 8.665-19.315 19.315 0 10.651 8.665 19.316 19.315 19.316 7.992 0 14.866-4.88 17.799-11.816h26.762v14.972c0 4.456.276 8.868.816 13.22h-23.438c-2.934-6.936-9.807-11.814-17.799-11.814-10.65 0-19.315 8.665-19.315 19.316 0 10.65 8.665 19.315 19.315 19.315 7.993 0 14.866-4.88 17.8-11.817h26.415c2.164 7.853 5.241 15.406 9.163 22.539h-17.335c-2.934-6.936-9.807-11.814-17.799-11.814-10.65 0-19.315 8.665-19.315 19.315s8.665 19.315 19.315 19.315c7.992 0 14.866-4.88 17.8-11.816h27.353c2.466 3.085 5.112 6.056 7.946 8.89 19.943 19.944 46.447 30.922 74.647 30.921h.239c21.113 0 40.983 8.232 55.956 23.187 15.069 15.05 23.368 35.069 23.368 56.369 0 7.737-6.295 14.032-14.032 14.032h-56.381-30.823-51.504l-66.549-37.131c-.006-.004-.013-.006-.02-.009-.267-.148-.544-.279-.83-.394-.05-.021-.102-.037-.152-.056-.228-.086-.461-.161-.7-.226-.076-.021-.151-.041-.228-.059-.23-.054-.465-.097-.703-.129-.062-.009-.124-.021-.187-.028-.275-.031-.553-.049-.835-.049h-99.376v-113.138c0-4.142-3.357-7.5-7.5-7.5s-7.5 3.358-7.5 7.5v158.089.078.551c0 4.142 3.357 7.5 7.5 7.5h25.987v29.687h-37.267c-4.143 0-7.5 3.358-7.5 7.5v36.695c0 4.142 3.357 7.5 7.5 7.5h280.635c19.218 0 37.994-6.683 52.871-18.818 14.645-11.953 24.907-28.667 28.897-47.066.481-2.217-.067-4.532-1.49-6.297-1.424-1.766-3.57-2.793-5.839-2.793zm-243.668-238.721c-2.38 0-4.315-1.936-4.315-4.316 0-2.379 1.936-4.315 4.315-4.315s4.315 1.936 4.315 4.315c.001 2.38-1.935 4.316-4.315 4.316zm4.141 43.193c-2.38 0-4.315-1.936-4.315-4.315 0-2.38 1.936-4.316 4.315-4.316s4.315 1.936 4.315 4.316c0 2.379-1.935 4.315-4.315 4.315zm18.244 37.539c-2.38 0-4.315-1.936-4.315-4.315s1.936-4.315 4.315-4.315 4.315 1.936 4.315 4.315-1.935 4.315-4.315 4.315zm129.397 151.582v29.687h-15.823v-29.687zm-76.778 0h45.954v29.687h-149.272v-29.687h35.065c4.143 0 7.5-3.358 7.5-7.5v-25.309l57.099 31.858c1.117.624 2.375.951 3.654.951zm-75.753-38.082v23.082h-91.877v-23.082zm-58.389 38.082h15.824v29.687h-15.824zm271.755 50.941c-12.207 9.957-27.616 15.44-43.389 15.44h-273.134v-21.695h273.135c16.756 0 32.183-8.993 40.558-23.279h23.901c-4.23 11.465-11.514 21.734-21.071 29.534z"/></g></svg>